# xmcd CD database file
#
# Track frame offsets:
#	151
#	32120
#	60536
#	91646
#	121858
#	151715
#	176362
#	198800
#
# Disc length: 3008 seconds
#
# Revision: 0
# Processed by: cddbd v1.5PL3 Copyright (c) Steve Scherf et al.
# Submitted via: CDex 1.60beta1
#
DISCID=500bbe08
DTITLE=The Alex Welsh Legacy Band - The Sound of Alex, Vol. 1
DYEAR=2002
DGENRE=Jazz
TTITLE0=Oh, Baby
TTITLE1=Home
TTITLE2=At The Jazz Band Ball
TTITLE3=Nobody Else But Me
TTITLE4=Limehouse Blues
TTITLE5=Someday You'll Be Sorry
TTITLE6=Up A Lazy River
TTITLE7=Chinatown, My Chinatown
EXTD=YEAR: 2002
EXTT0=
EXTT1=
EXTT2=
EXTT3=
EXTT4=
EXTT5=
EXTT6=
EXTT7=
PLAYORDER=
